<?xml version="1.0" encoding="UTF-8" standalone="no" ?>
<!DOCTYPE svg PUBLIC "-//W3C//DTD SVG 1.1//EN" "http://www.w3.org/Graphics/SVG/1.1/DTD/svg11.dtd">
<svg xmlns="http://www.w3.org/2000/svg" xmlns:xlink="http://www.w3.org/1999/xlink" version="1.1" width="1440" height="560" viewBox="0 0 1440 560" xml:space="preserve">
<desc>Created with Fabric.js 5.3.0</desc>
<defs>
</defs>
<g transform="matrix(-1 0 0 1 720 280)" id="kvsNNkDLu8lT48DC7X5X_"  >
<g style=""   >
		<g transform="matrix(1 0 0 1 0 0)" id="q0qGe_saCannrX8G0ZO_0"  >
<linearGradient id="SVGID_0" gradientUnits="userSpaceOnUse" gradientTransform="matrix(1 0 0 1 0 0)"  x1="220.03199999999998" y1="-220.024" x2="1219.9679999999998" y2="780.024">
<stop offset="0%" style="stop-color:rgb(68,47,78);stop-opacity: 1"/>
<stop offset="100%" style="stop-color:rgb(141,106,159);stop-opacity: 1"/>
</linearGradient>
<path style="stroke: none; stroke-width: 1; stroke-dasharray: none; stroke-linecap: butt; stroke-dashoffset: 0; stroke-linejoin: miter; stroke-miterlimit: 4; fill: url(#SVGID_0); fill-rule: nonzero; opacity: 1;"  transform=" translate(-720, -280)" d="M 0 560 L 0 0 L 1440 0 L 1440 560 z" stroke-linecap="round" />
</g>
		<g transform="matrix(1 0 0 1 387.605 -232.34)" id="nkgsimWD0XXMQgdfOXMaQ"  >
<path style="stroke: none; stroke-width: 1; stroke-dasharray: none; stroke-linecap: butt; stroke-dashoffset: 0; stroke-linejoin: miter; stroke-miterlimit: 4; fill: rgb(255,255,255); fill-opacity: 0.1; fill-rule: nonzero; opacity: 1;"  transform=" translate(-1107.605, -47.66)" d="M 1440 0 L 775.21 0 L 1440 95.32 z" stroke-linecap="round" />
</g>
		<g transform="matrix(1 0 0 1 362.735 -189.9)" id="dZdQGKbgg7oBa3Xa_ypzq"  >
<path style="stroke: none; stroke-width: 1; stroke-dasharray: none; stroke-linecap: butt; stroke-dashoffset: 0; stroke-linejoin: miter; stroke-miterlimit: 4; fill: rgb(255,255,255); fill-opacity: 0.07; fill-rule: nonzero; opacity: 1;"  transform=" translate(-1082.735, -90.1)" d="M 775.21 0 L 1440 95.32 L 1440 180.2 L 725.47 0 z" stroke-linecap="round" />
</g>
		<g transform="matrix(1 0 0 1 332.39 -139.13)" id="TEsuh3hNCOKHDz3Mx53zX"  >
<path style="stroke: none; stroke-width: 1; stroke-dasharray: none; stroke-linecap: butt; stroke-dashoffset: 0; stroke-linejoin: miter; stroke-miterlimit: 4; fill: rgb(255,255,255); fill-opacity: 0.05; fill-rule: nonzero; opacity: 1;"  transform=" translate(-1052.39, -140.87)" d="M 725.47 0 L 1440 180.2 L 1440 281.74 L 664.78 0 z" stroke-linecap="round" />
</g>
		<g transform="matrix(1 0 0 1 264.55 -98.325)" id="SagOPo9cGDAP4tbvCKyxN"  >
<path style="stroke: none; stroke-width: 1; stroke-dasharray: none; stroke-linecap: butt; stroke-dashoffset: 0; stroke-linejoin: miter; stroke-miterlimit: 4; fill: rgb(255,255,255); fill-opacity: 0.03; fill-rule: nonzero; opacity: 1;"  transform=" translate(-984.55, -181.675)" d="M 664.78 0 L 1440 281.74 L 1440 363.35 L 529.0999999999999 0 z" stroke-linecap="round" />
</g>
		<g transform="matrix(1 0 0 1 -663.555 164.75)" id="TXAuWjxTP1T3-mvCUbYPQ"  >
<path style="stroke: none; stroke-width: 1; stroke-dasharray: none; stroke-linecap: butt; stroke-dashoffset: 0; stroke-linejoin: miter; stroke-miterlimit: 4; fill: rgb(0,0,0); fill-opacity: 0.1; fill-rule: nonzero; opacity: 1;"  transform=" translate(-56.445, -444.75)" d="M 0 560 L 112.89 560 L 0 329.5 z" stroke-linecap="round" />
</g>
		<g transform="matrix(1 0 0 1 -649.575 164.005)" id="d9obbjwTsPCgS6mZTpi5b"  >
<path style="stroke: none; stroke-width: 1; stroke-dasharray: none; stroke-linecap: butt; stroke-dashoffset: 0; stroke-linejoin: miter; stroke-miterlimit: 4; fill: rgb(0,0,0); fill-opacity: 0.07; fill-rule: nonzero; opacity: 1;"  transform=" translate(-70.425, -444.005)" d="M 0 329.5 L 112.89 560 L 140.85 560 L 0 328.01 z" stroke-linecap="round" />
</g>
		<g transform="matrix(1 0 0 1 -489.28 109.045)" id="ZsWf4_FbUOwNPyqbLjdZn"  >
<path style="stroke: none; stroke-width: 1; stroke-dasharray: none; stroke-linecap: butt; stroke-dashoffset: 0; stroke-linejoin: miter; stroke-miterlimit: 4; fill: rgb(0,0,0); fill-opacity: 0.05; fill-rule: nonzero; opacity: 1;"  transform=" translate(-230.72, -389.045)" d="M 0 328.01 L 140.85 560 L 461.43999999999994 560 L 0 218.08999999999997 z" stroke-linecap="round" />
</g>
		<g transform="matrix(1 0 0 1 -217.935 68.12)" id="18J1kWq05tIv9Adt3kCog"  >
<path style="stroke: none; stroke-width: 1; stroke-dasharray: none; stroke-linecap: butt; stroke-dashoffset: 0; stroke-linejoin: miter; stroke-miterlimit: 4; fill: rgb(0,0,0); fill-opacity: 0.03; fill-rule: nonzero; opacity: 1;"  transform=" translate(-502.065, -348.12)" d="M 0 218.08999999999997 L 461.43999999999994 560 L 1004.13 560 L 0 136.23999999999998 z" stroke-linecap="round" />
</g>
		<g transform="matrix(1.3940417544 0 0 1.3214662916 -657 -217)" id="Plp5Ujnhaj_QOQjuY_klc"  >
<path style="stroke: rgb(0,0,0); stroke-width: 0; stroke-dasharray: none; stroke-linecap: butt; stroke-dashoffset: 0; stroke-linejoin: miter; stroke-miterlimit: 4; fill: rgb(88,56,105); fill-rule: nonzero; opacity: 1;"  transform=" translate(-0.000005, 0.000005)" d="M -45.19233 47.67431 L 45.19234 -47.67432 L -44.99699 -47.67432 z" stroke-linecap="round" />
</g>
		<g transform="matrix(1.0293041349 0 0 1.0247633229 -673.2339100405 -233.5569775576)" id="iPg-4hPq1F2WvwNDsSNy6"  >
<path style="stroke: rgb(0,0,0); stroke-width: 0; stroke-dasharray: none; stroke-linecap: butt; stroke-dashoffset: 0; stroke-linejoin: miter; stroke-miterlimit: 4; fill: rgb(120,82,111); fill-rule: nonzero; opacity: 1;"  transform=" translate(-0.000005, 0)" d="M -45.20679 45.32073 L 45.43467 -45.32073 L -45.43466000000001 -45.32073 z" stroke-linecap="round" />
</g>
		<g transform="matrix(0.7017007052 0 0 0.6533372739 -688.357041498 -248.0336607644)" id="-koVmvvjgqRDjAL_BW0-2"  >
<path style="stroke: rgb(0,0,0); stroke-width: 0; stroke-dasharray: none; stroke-linecap: butt; stroke-dashoffset: 0; stroke-linejoin: miter; stroke-miterlimit: 4; fill: rgb(164,106,118); fill-rule: nonzero; opacity: 1;"  transform=" translate(-0.000005, -0.000005)" d="M -45.09346 48.92778 L 45.09467 -48.927769999999995 L -45.09466 -48.927769999999995 z" stroke-linecap="round" />
</g>
		<g transform="matrix(0.3589215776 0 0 0.3573381823 -703.8145515558 -263.8861694097)" id="emkePK6rCtetgBcK3UvFD"  >
<path style="stroke: rgb(0,0,0); stroke-width: 0; stroke-dasharray: none; stroke-linecap: butt; stroke-dashoffset: 0; stroke-linejoin: miter; stroke-miterlimit: 4; fill: rgb(196,138,122); fill-rule: nonzero; opacity: 1;"  transform=" translate(-0.000005, 0.000005)" d="M -45.09346 45.09406 L 45.09467 -45.09407 L -45.09466 -45.09407 z" stroke-linecap="round" />
</g>
</g>
</g>
</svg>