
        <svg xmlns="http://www.w3.org/2000/svg" xmlns:xlink="http://www.w3.org/1999/xlink" version="1.1" width="3133.3333333333335" 
        height="1260" viewBox="0 0 3133.3333333333335 1260">
			
			<g transform="scale(6.666666666666667) translate(10, 10)">
				<defs id="SvgjsDefs30261"><linearGradient id="SvgjsLinearGradient30268"><stop id="SvgjsStop30269" stop-color="#905e26" offset="0"></stop><stop id="SvgjsStop30270" stop-color="#f5ec9b" offset="0.5"></stop><stop id="SvgjsStop30271" stop-color="#905e26" offset="1"></stop></linearGradient><linearGradient id="SvgjsLinearGradient30272"><stop id="SvgjsStop30273" stop-color="#905e26" offset="0"></stop><stop id="SvgjsStop30274" stop-color="#f5ec9b" offset="0.5"></stop><stop id="SvgjsStop30275" stop-color="#905e26" offset="1"></stop></linearGradient><linearGradient id="SvgjsLinearGradient30276"><stop id="SvgjsStop30277" stop-color="#905e26" offset="0"></stop><stop id="SvgjsStop30278" stop-color="#f5ec9b" offset="0.5"></stop><stop id="SvgjsStop30279" stop-color="#905e26" offset="1"></stop></linearGradient></defs><g id="SvgjsG30262" featureKey="rootContainer" transform="matrix(1,0,0,1,0,0)" fill="url(#SvgjsLinearGradient30268)"><path xmlns="http://www.w3.org/2000/svg" fill-rule="evenodd" d=" M0,0 H450 V169 H0,0 z M2,2 H448 V167 H2,2 z M6,6 H444 V163 H6 z M8,8 H442 V161 H6,8 z "></path></g><g id="SvgjsG30263" featureKey="nameFeature-0" transform="matrix(1.264735935866878,0,0,1.264735935866878,48.42364594652728,32.93314976845302)" fill="url(#SvgjsLinearGradient30272)"><path d="M19.258 32.7144 c0.17801 0 0.30801 0.13047 0.30801 0.31688 l0 6.9696 l-18.004 0 c-0.18602 0 -0.31562 -0.12961 -0.31562 -0.31602 c0 -0.17801 0.12961 -0.30762 0.31562 -0.30762 l1.036 0 c0.5812 0 0.96244 -0.438 0.96244 -0.9236 l0 -23.263 c0 -0.4872 -0.37961 -0.9272 -0.96244 -0.9272 l-1.036 0 c-0.18602 0 -0.31562 -0.12961 -0.31562 -0.30762 c0 -0.18641 0.12961 -0.31602 0.31562 -0.31602 l17.847 0 l0 6.9696 c0 0.18641 -0.12961 0.31602 -0.31562 0.31602 c-0.17801 0 -0.30762 -0.12961 -0.30762 -0.31602 l0 -1.6192 c0 -2.76 -1.64 -4.7268 -4.92 -4.7268 l-5.9356 0 c-0.5812 0 -0.96244 0.4356 -0.96244 0.9236 l0 10.745 l3.1756 0 c3.2608 0 3.622 -1.1352 3.622 -2.9916 l0 -0.36559 c0 -0.17801 0.13801 -0.31602 0.31602 -0.31602 s0.31602 0.13801 0.31602 0.31602 l0 7.3544 c0 0.17801 -0.13801 0.31602 -0.31602 0.31602 s-0.31602 -0.12961 -0.31602 -0.34082 l0 -0.39719 c0 -1.7836 -0.3448 -2.9352 -3.622 -2.9352 l-3.1756 0 l0 11.877 c0 0.4888 0.37961 0.9268 0.96244 0.9268 l6.0924 0 c3.28 0 4.92 -1.9668 4.92 -4.7268 l0 -1.6192 c0 -0.18641 0.12961 -0.31602 0.31562 -0.31602 z M45.924 33.0316 c0.17801 0 0.30801 0.12926 0.30801 0.31566 l0 6.6524 l-17.208 0 c-0.18602 0 -0.31562 -0.12961 -0.31562 -0.31602 c0 -0.17801 0.12961 -0.30762 0.31562 -0.30762 l1.036 0 c0.5812 0 0.96244 -0.4356 0.96244 -0.9236 l0 -23.263 c0 -0.4888 -0.37961 -0.9268 -0.96244 -0.9268 l-1.036 0 c-0.18602 0 -0.31562 -0.12961 -0.31562 -0.30762 c0 -0.18641 0.12961 -0.31602 0.31562 -0.31602 l7.404 0 c0.18602 0 0.31562 0.12961 0.31562 0.31602 c0 0.17801 -0.12961 0.30762 -0.31562 0.30762 l-1.036 0 c-0.5812 0 -0.96244 0.438 -0.96244 0.9236 l0 23.263 c0 0.4872 0.37961 0.9272 0.96244 0.9272 l5.2964 0 c3.2552 0 4.92 -2.6096 4.92 -5.3032 l0 -0.72558 c0 -0.18641 0.12961 -0.31602 0.31562 -0.31602 z M70.782 32.7144 c0.17801 0 0.30801 0.13047 0.30801 0.31688 l0 6.9696 l-18.004 0 c-0.18602 0 -0.31562 -0.12961 -0.31562 -0.31602 c0 -0.17801 0.12961 -0.30762 0.31562 -0.30762 l1.036 0 c0.5812 0 0.96244 -0.438 0.96244 -0.9236 l0 -23.263 c0 -0.4872 -0.37961 -0.9272 -0.96244 -0.9272 l-1.036 0 c-0.18602 0 -0.31562 -0.12961 -0.31562 -0.30762 c0 -0.18641 0.12961 -0.31602 0.31562 -0.31602 l17.847 0 l0 6.9696 c0 0.18641 -0.12961 0.31602 -0.31562 0.31602 c-0.17801 0 -0.30762 -0.12961 -0.30762 -0.31602 l0 -1.6192 c0 -2.76 -1.64 -4.7268 -4.92 -4.7268 l-5.9356 0 c-0.5812 0 -0.96244 0.4356 -0.96244 0.9236 l0 10.745 l3.1756 0 c3.2608 0 3.622 -1.1352 3.622 -2.9916 l0 -0.36559 c0 -0.17801 0.13801 -0.31602 0.31602 -0.31602 s0.31602 0.13801 0.31602 0.31602 l0 7.3544 c0 0.17801 -0.13801 0.31602 -0.31602 0.31602 s-0.31602 -0.12961 -0.31602 -0.34082 l0 -0.39719 c0 -1.7836 -0.3448 -2.9352 -3.622 -2.9352 l-3.1756 0 l0 11.877 c0 0.4888 0.37961 0.9268 0.96244 0.9268 l6.0924 0 c3.28 0 4.92 -1.9668 4.92 -4.7268 l0 -1.6192 c0 -0.18641 0.12961 -0.31602 0.31562 -0.31602 z M104.804 13.64 c0.17801 0 0.31641 0.12961 0.31641 0.30762 c0 0.18602 -0.13801 0.31562 -0.31602 0.31562 l-0.96 0 c-1.04 0 -1.5116 0.52 -1.84 1.4 l-9.5228 24.482 l-0.75602 0 l-9.4084 -24.522 c-0.2884 -0.72 -0.84 -1.36 -1.96 -1.36 l-0.88 0 c-0.17801 0 -0.31602 -0.12961 -0.31602 -0.31562 c0 -0.17801 0.13801 -0.30762 0.31602 -0.30762 l9.0068 0 c0.17801 0 0.31602 0.12961 0.31602 0.30762 c0 0.18602 -0.13801 0.31562 -0.31602 0.31562 l-1.44 0 c-0.804 0 -1.2548 0.606 -0.95996 1.4 l7.5348 19.777 l7.664 -19.777 c0.28 -0.7232 -0.16078 -1.4 -0.96 -1.4 l-1.44 0 c-0.17801 0 -0.31602 -0.12961 -0.31602 -0.31562 c0 -0.17801 0.13801 -0.30762 0.31602 -0.30762 l5.9212 0 z M135.906 39.3764 c0.17801 0 0.31524 0.12961 0.31524 0.31602 c0 0.17801 -0.13801 0.30762 -0.31602 0.30762 l-9.0068 0 c-0.17801 0 -0.31602 -0.12961 -0.31602 -0.30762 c0 -0.18641 0.13801 -0.31602 0.31602 -0.31602 l1.44 0 c0.804 0 1.2548 -0.606 0.95996 -1.4 l-2.478 -6.498 l-10.209 0 l-2.5116 6.498 c-0.28 0.7232 0.16078 1.4 0.96 1.4 l1.44 0 c0.17801 0 0.31602 0.12961 0.31602 0.31602 c0 0.17801 -0.13801 0.30762 -0.31602 0.30762 l-5.9212 0 c-0.17801 0 -0.31602 -0.12961 -0.31602 -0.30762 c0 -0.18641 0.13801 -0.31602 0.31602 -0.31602 l0.96 0 c1.04 0 1.5116 -0.52 1.84 -1.4 l9.5228 -24.482 l0.75602 0 l9.4084 24.522 c0.2884 0.72 0.84 1.36 1.96 1.36 l0.88 0 z M116.86160000000001 30.8632 l9.7316 0 l-4.8296 -12.664 z M162.394 13.64 l-0.00039062 6.9692 c0 0.18641 -0.12961 0.31602 -0.31602 0.31602 c-0.17801 0 -0.30762 -0.12961 -0.30762 -0.31602 l0 -1.6192 c0 -2.76 -1.64 -4.7268 -4.92 -4.7268 l-2.014 0 c-0.5812 0 -0.96244 0.438 -0.96244 0.9236 l0 23.263 c0 0.4872 0.37961 0.9272 0.96244 0.9272 l1.036 0 c0.18641 0 0.31602 0.12961 0.31602 0.30762 c0 0.18641 -0.12961 0.31602 -0.31602 0.31602 l-7.404 0 c-0.18602 0 -0.31562 -0.12961 -0.31562 -0.31602 c0 -0.17801 0.12961 -0.30762 0.31562 -0.30762 l1.036 0 c0.5812 0 0.96244 -0.4356 0.96244 -0.9236 l0 -23.263 c0 -0.4888 -0.37961 -0.9268 -0.96244 -0.9268 l-1.378 0 c-3.5972 0 -5.5544 1.6496 -5.5544 5.3612 l0 0.9848 c0 0.18641 -0.12961 0.31602 -0.31562 0.31602 c-0.17801 0 -0.30762 -0.12961 -0.30762 -0.31602 l0 -6.9696 l20.446 0 z M187.19 32.7144 c0.17801 0 0.30801 0.13047 0.30801 0.31688 l0 6.9696 l-18.004 0 c-0.18602 0 -0.31562 -0.12961 -0.31562 -0.31602 c0 -0.17801 0.12961 -0.30762 0.31562 -0.30762 l1.036 0 c0.5812 0 0.96244 -0.438 0.96244 -0.9236 l0 -23.263 c0 -0.4872 -0.37961 -0.9272 -0.96244 -0.9272 l-1.036 0 c-0.18602 0 -0.31562 -0.12961 -0.31562 -0.30762 c0 -0.18641 0.12961 -0.31602 0.31562 -0.31602 l17.847 0 l0 6.9696 c0 0.18641 -0.12961 0.31602 -0.31562 0.31602 c-0.17801 0 -0.30762 -0.12961 -0.30762 -0.31602 l0 -1.6192 c0 -2.76 -1.64 -4.7268 -4.92 -4.7268 l-5.9356 0 c-0.5812 0 -0.96244 0.4356 -0.96244 0.9236 l0 10.745 l3.1756 0 c3.2608 0 3.622 -1.1352 3.622 -2.9916 l0 -0.36559 c0 -0.17801 0.13801 -0.31602 0.31602 -0.31602 s0.31602 0.13801 0.31602 0.31602 l0 7.3544 c0 0.17801 -0.13801 0.31602 -0.31602 0.31602 s-0.31602 -0.12961 -0.31602 -0.34082 l0 -0.39719 c0 -1.7836 -0.3448 -2.9352 -3.622 -2.9352 l-3.1756 0 l0 11.877 c0 0.4888 0.37961 0.9268 0.96244 0.9268 l6.0924 0 c3.28 0 4.92 -1.9668 4.92 -4.7268 l0 -1.6192 c0 -0.18641 0.12961 -0.31602 0.31562 -0.31602 z M221.24199999999996 39.3764 c0.18641 0 0.31524 0.12922 0.31524 0.30723 c0 0.18641 -0.12961 0.31602 -0.31562 0.31602 l-7.404 0 c-0.18602 0 -0.31562 -0.12961 -0.31562 -0.31602 c0 -0.17801 0.12961 -0.30762 0.31602 -0.30762 l1.036 0 c0.5812 0 0.96244 -0.4356 0.96244 -0.9236 l0 -12.072 l-13.476 0 l0 12.069 c0 0.4872 0.37961 0.9272 0.96244 0.9272 l1.036 0 c0.18602 0 0.31562 0.12961 0.31562 0.30762 c0 0.18641 -0.12961 0.31602 -0.31562 0.31602 l-7.404 0 c-0.18602 0 -0.31562 -0.12961 -0.31562 -0.31602 c0 -0.17801 0.12961 -0.30762 0.31562 -0.30762 l1.036 0 c0.5812 0 0.96244 -0.4356 0.96244 -0.9236 l0 -23.263 c0 -0.4888 -0.37961 -0.9268 -0.96244 -0.9268 l-1.036 0 c-0.18602 0 -0.31562 -0.12961 -0.31562 -0.30762 c0 -0.18641 0.12961 -0.31602 0.31562 -0.31602 l7.404 0 c0.18602 0 0.31562 0.12961 0.31562 0.31602 c0 0.17801 -0.12961 0.30762 -0.31562 0.30762 l-1.036 0 c-0.5812 0 -0.96244 0.438 -0.96244 0.9236 l0 10.57 l13.476 0 l0 -10.567 c0 -0.4888 -0.37961 -0.9268 -0.96244 -0.9268 l-1.036 0 c-0.18602 0 -0.31562 -0.12961 -0.31562 -0.30762 c0 -0.18641 0.12961 -0.31602 0.31562 -0.31602 l7.404 0 c0.18602 0 0.31562 0.12961 0.31562 0.31602 c0 0.17801 -0.12961 0.30762 -0.31562 0.30762 l-1.036 0 c-0.5812 0 -0.96244 0.438 -0.96244 0.9236 l0 23.263 c0 0.4872 0.37961 0.9272 0.96244 0.9272 l1.036 0 z M246.83399999999997 32.7144 c0.17801 0 0.30801 0.13047 0.30801 0.31688 l0 6.9696 l-18.004 0 c-0.18602 0 -0.31562 -0.12961 -0.31562 -0.31602 c0 -0.17801 0.12961 -0.30762 0.31562 -0.30762 l1.036 0 c0.5812 0 0.96244 -0.438 0.96244 -0.9236 l0 -23.263 c0 -0.4872 -0.37961 -0.9272 -0.96244 -0.9272 l-1.036 0 c-0.18602 0 -0.31562 -0.12961 -0.31562 -0.30762 c0 -0.18641 0.12961 -0.31602 0.31562 -0.31602 l17.847 0 l0 6.9696 c0 0.18641 -0.12961 0.31602 -0.31562 0.31602 c-0.17801 0 -0.30762 -0.12961 -0.30762 -0.31602 l0 -1.6192 c0 -2.76 -1.64 -4.7268 -4.92 -4.7268 l-5.9356 0 c-0.5812 0 -0.96244 0.4356 -0.96244 0.9236 l0 10.745 l3.1756 0 c3.2608 0 3.622 -1.1352 3.622 -2.9916 l0 -0.36559 c0 -0.17801 0.13801 -0.31602 0.31602 -0.31602 s0.31602 0.13801 0.31602 0.31602 l0 7.3544 c0 0.17801 -0.13801 0.31602 -0.31602 0.31602 s-0.31602 -0.12961 -0.31602 -0.34082 l0 -0.39719 c0 -1.7836 -0.3448 -2.9352 -3.622 -2.9352 l-3.1756 0 l0 11.877 c0 0.4888 0.37961 0.9268 0.96244 0.9268 l6.0924 0 c3.28 0 4.92 -1.9668 4.92 -4.7268 l0 -1.6192 c0 -0.18641 0.12961 -0.31602 0.31562 -0.31602 z M277.71 38.3256 c0.16961 0 0.27402 0.12121 0.27402 0.28242 c0 0.4764 -1.4376 1.6456 -3.2868 1.6456 c-7.8888 0 -0.2584 -12.982 -11.284 -12.982 l-1.4088 0 l0 11.178 c0 0.4872 0.37961 0.9272 0.96244 0.9272 l1.036 0 c0.18602 0 0.31562 0.12961 0.31562 0.30762 c0 0.18641 -0.12961 0.31602 -0.31562 0.31602 l-7.404 0 c-0.18602 0 -0.31562 -0.12961 -0.31562 -0.31602 c0 -0.17801 0.12961 -0.30762 0.31562 -0.30762 l1.036 0 c0.5812 0 0.96244 -0.4356 0.96244 -0.9236 l0 -23.263 c0 -0.4888 -0.37961 -0.9268 -0.96244 -0.9268 l-1.036 0 c-0.18602 0 -0.31562 -0.12961 -0.31562 -0.30762 c0 -0.18641 0.12961 -0.31602 0.31562 -0.31602 l8.7668 0 c5.302 0 8.884 2.084 8.884 6.324 c0 3.74 -2.9232 6.3052 -7.8424 6.944 c10.44 1.44 5.3708 12.35 9.3124 12.35 c1.2372 0 1.604 -0.9324 1.9904 -0.9324 z M262.00399999999996 26.64 l2.1476 0.00039062 c4.9436 0 6.538 -3.516 6.538 -6.6264 c0 -3.5616 -1.7188 -5.7504 -6.2276 -5.7504 l-1.4956 0 c-0.5812 0 -0.96244 0.438 -0.96244 0.9236 l0 11.453 z"></path></g><g id="SvgjsG30264" featureKey="sloganFeature-0" transform="matrix(1.0761698560448754,0,0,1.0761698560448754,83.17051144998682,97.75821462967662)" fill="url(#SvgjsLinearGradient30276)"><path d="M9.3 11.16 c1.76 0.64 2.78 2.24 2.78 4.28 c0 2.38 -1.18 4.48 -5 4.56 l-5.38 0 l0 -14 l5.6 0 c2.46 0 3.14 1.8 3.14 2.94 c0 1 -0.6 1.8 -1.14 2.22 z M7.08 7.619999999999999 l-3.58 0 l0 3.12 l3.2 0 c1.42 0 1.98 -0.72 1.98 -1.58 c0 -0.62 -0.4 -1.54 -1.6 -1.54 z M6.92 18.28 c2.32 0 3.32 -1.16 3.32 -2.84 c0 -1.88 -1.04 -3.2 -3.28 -3.2 l-3.46 0 l0 6.04 l3.42 0 z M31.043 6 l-4.94 7.78 l0 6.22 l-1.8 0 l0 -6.2 l-4.96 -7.8 l2.04 0 l3.82 6.02 l3.8 -6.02 l2.04 0 z M61.109 20 l-1.22 -2.84 l-6.24 0 l-1.22 2.84 l-1.92 0 l6.16 -14.2 l0.2 0 l6.16 14.2 l-1.92 0 z M54.369 15.48 l4.8 0 l-2.4 -5.54 z M80.572 6 l1.8 0 l0 14.2 l-0.22 0 l-9.4 -9.98 l0 9.78 l-1.78 0 l0 -14.2 l0.2 0 l9.4 9.98 l0 -9.78 z M100.89500000000001 20 l-1.22 -2.84 l-6.24 0 l-1.22 2.84 l-1.92 0 l6.16 -14.2 l0.2 0 l6.16 14.2 l-1.92 0 z M94.155 15.48 l4.8 0 l-2.4 -5.54 z M133.721 11.06 c0 2.26 -1.06 4.2 -3.24 4.84 l3.02 4.1 l-2.16 0 l-2.86 -3.88 l-3.14 0 l0 3.88 l-1.8 0 l0 -14 l5.28 0 c3.3 0 4.9 2.28 4.9 5.06 z M125.34100000000001 7.68 l0 6.74 l3.4 0 c2.26 0 3.18 -1.66 3.18 -3.36 s-0.92 -3.38 -3.18 -3.38 l-3.4 0 z M150.844 18.28 l0.12 1.72 l-8.52 0 l0 -14 l8.12 0 l0.14 1.72 l-6.46 0 l0 3.42 l4.38 0 l0 1.72 l-4.38 0 l0 5.42 l6.6 0 z M158.727 18.54 c0.88 0.82 2.7 1.66 4.52 1.66 c2.8 0 4.58 -1.44 4.58 -3.7 c0 -1.84 -0.88 -2.92 -3.92 -4.64 c-2.32 -1.34 -2.88 -1.78 -2.88 -2.66 c0 -0.94 0.88 -1.68 2.36 -1.68 c0.86 0 2 0.38 2.66 0.8 l0.96 -1.44 c-0.94 -0.62 -2.42 -1.08 -3.6 -1.08 c-2.58 0 -4.3 1.48 -4.3 3.42 c0 1.72 0.86 2.58 3.5 4.02 c2.34 1.28 3.3 2.22 3.3 3.24 c0 1.2 -1.04 1.92 -2.66 1.92 c-1.4 0 -2.8 -0.66 -3.5 -1.3 z M185.11 7.720000000000001 l-4.08 0 l0 12.28 l-1.8 0 l0 -12.28 l-4.1 0 l0.12 -1.72 l9.74 0 z M203.413 11.06 c0 2.26 -1.06 4.2 -3.24 4.84 l3.02 4.1 l-2.16 0 l-2.86 -3.88 l-3.14 0 l0 3.88 l-1.8 0 l0 -14 l5.28 0 c3.3 0 4.9 2.28 4.9 5.06 z M195.03300000000002 7.68 l0 6.74 l3.4 0 c2.26 0 3.18 -1.66 3.18 -3.36 s-0.92 -3.38 -3.18 -3.38 l-3.4 0 z M220.536 18.28 l0.12 1.72 l-8.52 0 l0 -14 l8.12 0 l0.14 1.72 l-6.46 0 l0 3.42 l4.38 0 l0 1.72 l-4.38 0 l0 5.42 l6.6 0 z M234.49900000000002 6 c3.28 0 4.82 2.48 4.82 5.1 s-1.54 5.1 -4.82 5.1 l-3.5 0 l0 3.8 l-1.8 0 l0 -14 l5.3 0 z M234.419 14.48 c1.84 0 3.06 -1.42 3.06 -3.38 s-1.22 -3.38 -3.06 -3.38 l-3.42 0 l0 6.76 l3.42 0 z M254.70200000000003 20.2 c-4 0 -7.18 -3.2 -7.18 -7.2 s3.18 -7.2 7.18 -7.2 s7.18 3.2 7.18 7.2 s-3.18 7.2 -7.18 7.2 z M254.70200000000003 18.48 c3.04 0 5.32 -2.38 5.32 -5.48 s-2.28 -5.48 -5.32 -5.48 c-3.06 0 -5.34 2.38 -5.34 5.48 s2.28 5.48 5.34 5.48 z"></path></g>
			</g>
		</svg>
	