<?xml version="1.0" encoding="utf-8"?>
<svg id="visual" viewBox="0 0 600 900" width="600" height="900" version="1.1" xmlns="http://www.w3.org/2000/svg">
  <rect x="0" y="0" width="600" height="900" fill="#d8c690"/>
  <g transform="translate(0, 0)">
    <path d="M 216.3 0 C 211.7 27.4 25.5 206.5 0 216.3 L 0 0 L 216.3 0 Z" fill="#d5b185"/>
    <path d="M 173.1 0 C 169.4 21.9 20.4 165.2 0 173.1 L 0 0 L 173.1 0 Z" fill="#c48a7a"/>
    <path d="M 129.8 0 C 127 16.5 15.3 123.9 0 129.8 L 0 0 L 129.8 0 Z" fill="#a46a76"/>
    <path d="M 86.5 0 C 84.7 11 10.2 82.6 0 86.5 L 0 0 L 86.5 0 Z" fill="#78526f"/>
    <path d="M 43.3 0 C 42.3 5.5 5.1 41.3 0 43.3 L 0 0 L 43.3 0 Z" fill="#5e4869"/>
  </g>
</svg>