<svg xmlns="http://www.w3.org/2000/svg" version="1.1" xmlns:xlink="http://www.w3.org/1999/xlink" xmlns:svgjs="http://svgjs.dev/svgjs" width="1440" height="560" preserveAspectRatio="none" viewBox="0 0 1440 560"><g mask="url(&quot;#SvgjsMask1240&quot;)" fill="none"><rect width="1440" height="560" x="0" y="0" fill="url(&quot;#SvgjsLinearGradient1241&quot;)"></rect><path d="M1440 0L775.21 0L1440 95.32z" fill="rgba(255, 255, 255, .1)"></path><path d="M775.21 0L1440 95.32L1440 180.2L725.47 0z" fill="rgba(255, 255, 255, .075)"></path><path d="M725.47 0L1440 180.2L1440 281.74L664.78 0z" fill="rgba(255, 255, 255, .05)"></path><path d="M664.78 0L1440 281.74L1440 363.35L529.0999999999999 0z" fill="rgba(255, 255, 255, .025)"></path><path d="M0 560L112.89 560L0 329.5z" fill="rgba(0, 0, 0, .1)"></path><path d="M0 329.5L112.89 560L140.85 560L0 328.01z" fill="rgba(0, 0, 0, .075)"></path><path d="M0 328.01L140.85 560L461.43999999999994 560L0 218.08999999999997z" fill="rgba(0, 0, 0, .05)"></path><path d="M0 218.08999999999997L461.43999999999994 560L1004.13 560L0 136.23999999999998z" fill="rgba(0, 0, 0, .025)"></path></g><defs><mask id="SvgjsMask1240"><rect width="1440" height="560" fill="#ffffff"></rect></mask><linearGradient x1="15.28%" y1="-39.29%" x2="84.72%" y2="139.29%" gradientUnits="userSpaceOnUse" id="SvgjsLinearGradient1241"><stop stop-color="rgba(68, 47, 78, 1)" offset="0"></stop><stop stop-color="rgba(141, 106, 159, 1)" offset="1"></stop></linearGradient></defs></svg>