<?xml version="1.0" encoding="utf-8"?>
<svg id="visual" viewBox="0 0 960 540" width="960" height="540" version="1.1" xmlns="http://www.w3.org/2000/svg">
  <rect x="0" y="0" width="960" height="540" fill="#d8c690"/>
  <g transform="translate(0, 0)">
    <path d="M 216 0 C 205.8 25.3 26.8 210.1 0 216 L 0 0 L 216 0 Z" fill="#d5b185"/>
    <path d="M 172.8 0 C 164.6 20.2 21.5 168.1 0 172.8 L 0 0 L 172.8 0 Z" fill="#c48a7a"/>
    <path d="M 129.6 0 C 123.5 15.2 16.1 126.1 0 129.6 L 0 0 L 129.6 0 Z" fill="#a46a76"/>
    <path d="M 86.4 0 C 82.3 10.1 10.7 84 0 86.4 L 0 0 L 86.4 0 Z" fill="#78526f"/>
    <path d="M 43.2 0 C 41.2 5.1 5.4 42 0 43.2 L 0 0 L 43.2 0 Z" fill="#5e4869"/>
  </g>
</svg>